<mxfile host="Electron" modified="2023-11-22T10:44:11.864Z" agent="Mozilla/5.0 (Windows NT 10.0; Win64; x64) AppleWebKit/537.36 (KHTML, like Gecko) draw.io/22.1.2 Chrome/114.0.5735.289 Electron/25.9.4 Safari/537.36" etag="9x6R-jPyqljPpxq-nOIu" version="22.1.2" type="device">
  <diagram name="Page-1" id="tYHjT4Ij3QvmcB-WAmRi">
    <mxGraphModel dx="1418" dy="828" grid="1" gridSize="10" guides="1" tooltips="1" connect="1" arrows="1" fold="1" page="1" pageScale="1" pageWidth="827" pageHeight="1169" math="0" shadow="0">
      <root>
        <mxCell id="0" />
        <mxCell id="1" parent="0" />
        <mxCell id="OZrxtG6xLuRoBna3rhpG-1" value="Saisir l&#39;heure" style="ellipse;whiteSpace=wrap;html=1;" vertex="1" parent="1">
          <mxGeometry x="360" y="10" width="120" height="80" as="geometry" />
        </mxCell>
        <mxCell id="OZrxtG6xLuRoBna3rhpG-2" value="Saisir les minutes" style="ellipse;whiteSpace=wrap;html=1;" vertex="1" parent="1">
          <mxGeometry x="360" y="150" width="120" height="80" as="geometry" />
        </mxCell>
        <mxCell id="OZrxtG6xLuRoBna3rhpG-3" value="" style="endArrow=classic;html=1;rounded=0;" edge="1" parent="1">
          <mxGeometry width="50" height="50" relative="1" as="geometry">
            <mxPoint x="419.5" y="90" as="sourcePoint" />
            <mxPoint x="419.5" y="150" as="targetPoint" />
          </mxGeometry>
        </mxCell>
        <mxCell id="OZrxtG6xLuRoBna3rhpG-4" value="Si minutes = 60" style="rhombus;whiteSpace=wrap;html=1;fontColor=#000000;fillColor=#ffffc0;strokeColor=#ff0000;" vertex="1" parent="1">
          <mxGeometry x="367.5" y="280" width="105" height="60" as="geometry" />
        </mxCell>
        <mxCell id="OZrxtG6xLuRoBna3rhpG-7" value="" style="endArrow=classic;html=1;rounded=0;entryX=0.5;entryY=0;entryDx=0;entryDy=0;" edge="1" parent="1" target="OZrxtG6xLuRoBna3rhpG-4">
          <mxGeometry width="50" height="50" relative="1" as="geometry">
            <mxPoint x="419.5" y="230" as="sourcePoint" />
            <mxPoint x="420" y="320" as="targetPoint" />
          </mxGeometry>
        </mxCell>
        <mxCell id="OZrxtG6xLuRoBna3rhpG-8" value="Augmenter le nombre d&#39;heure de 1" style="ellipse;whiteSpace=wrap;html=1;" vertex="1" parent="1">
          <mxGeometry x="360" y="400" width="120" height="80" as="geometry" />
        </mxCell>
        <mxCell id="OZrxtG6xLuRoBna3rhpG-9" value="" style="endArrow=classic;html=1;rounded=0;" edge="1" parent="1">
          <mxGeometry width="50" height="50" relative="1" as="geometry">
            <mxPoint x="419.5" y="340" as="sourcePoint" />
            <mxPoint x="419.5" y="400" as="targetPoint" />
          </mxGeometry>
        </mxCell>
        <mxCell id="OZrxtG6xLuRoBna3rhpG-10" value="" style="endArrow=classic;html=1;rounded=0;" edge="1" parent="1">
          <mxGeometry width="50" height="50" relative="1" as="geometry">
            <mxPoint x="419.5" y="480" as="sourcePoint" />
            <mxPoint x="420" y="520" as="targetPoint" />
          </mxGeometry>
        </mxCell>
        <mxCell id="OZrxtG6xLuRoBna3rhpG-11" value="Remettre le nombre de minutes a 0 puis rajouter 1 minute" style="ellipse;whiteSpace=wrap;html=1;" vertex="1" parent="1">
          <mxGeometry x="360" y="520" width="120" height="80" as="geometry" />
        </mxCell>
        <mxCell id="OZrxtG6xLuRoBna3rhpG-12" value="Fin de l&#39;algorithme" style="ellipse;whiteSpace=wrap;html=1;" vertex="1" parent="1">
          <mxGeometry x="360" y="650" width="120" height="80" as="geometry" />
        </mxCell>
        <mxCell id="OZrxtG6xLuRoBna3rhpG-13" value="" style="endArrow=classic;html=1;rounded=0;" edge="1" parent="1">
          <mxGeometry width="50" height="50" relative="1" as="geometry">
            <mxPoint x="419.5" y="600" as="sourcePoint" />
            <mxPoint x="419.5" y="650" as="targetPoint" />
          </mxGeometry>
        </mxCell>
        <mxCell id="OZrxtG6xLuRoBna3rhpG-15" value="" style="endArrow=classic;html=1;rounded=0;" edge="1" parent="1">
          <mxGeometry width="50" height="50" relative="1" as="geometry">
            <mxPoint x="490" y="190" as="sourcePoint" />
            <mxPoint x="490" y="190" as="targetPoint" />
          </mxGeometry>
        </mxCell>
        <mxCell id="OZrxtG6xLuRoBna3rhpG-17" value="Si minutes &amp;lt; 60" style="rhombus;whiteSpace=wrap;html=1;fontColor=#000000;fillColor=#ffffc0;strokeColor=#ff0000;" vertex="1" parent="1">
          <mxGeometry x="550" y="162.5" width="100" height="55" as="geometry" />
        </mxCell>
        <mxCell id="OZrxtG6xLuRoBna3rhpG-20" value="" style="endArrow=classic;html=1;rounded=0;" edge="1" parent="1">
          <mxGeometry width="50" height="50" relative="1" as="geometry">
            <mxPoint x="480" y="189.5" as="sourcePoint" />
            <mxPoint x="550" y="189.5" as="targetPoint" />
          </mxGeometry>
        </mxCell>
        <mxCell id="OZrxtG6xLuRoBna3rhpG-21" value="" style="endArrow=classic;html=1;rounded=0;entryX=0.5;entryY=0;entryDx=0;entryDy=0;" edge="1" parent="1" target="OZrxtG6xLuRoBna3rhpG-22">
          <mxGeometry width="50" height="50" relative="1" as="geometry">
            <mxPoint x="599.5" y="217.5" as="sourcePoint" />
            <mxPoint x="600" y="260" as="targetPoint" />
          </mxGeometry>
        </mxCell>
        <mxCell id="OZrxtG6xLuRoBna3rhpG-22" value="Rajouter une minute" style="ellipse;whiteSpace=wrap;html=1;" vertex="1" parent="1">
          <mxGeometry x="540" y="270" width="120" height="80" as="geometry" />
        </mxCell>
        <mxCell id="OZrxtG6xLuRoBna3rhpG-25" value="" style="endArrow=classic;html=1;rounded=0;entryX=1;entryY=0.5;entryDx=0;entryDy=0;" edge="1" parent="1" target="OZrxtG6xLuRoBna3rhpG-12">
          <mxGeometry width="50" height="50" relative="1" as="geometry">
            <mxPoint x="600" y="350" as="sourcePoint" />
            <mxPoint x="550" y="400" as="targetPoint" />
            <Array as="points">
              <mxPoint x="600" y="690" />
              <mxPoint x="560" y="690" />
            </Array>
          </mxGeometry>
        </mxCell>
      </root>
    </mxGraphModel>
  </diagram>
</mxfile>
